<?xml version="1.0" encoding="UTF-8"?>
<svg width="154px" height="74px" viewBox="0 0 154 74" version="1.1" xmlns="http://www.w3.org/2000/svg" xmlns:xlink="http://www.w3.org/1999/xlink">
    <!-- Generator: Sketch 41 (35326) - http://www.bohemiancoding.com/sketch -->
    <title>Page 1</title>
    <desc>Created with Sketch.</desc>
    <defs></defs>
    <g id="Home-Page" stroke="none" stroke-width="1" fill="none" fill-rule="evenodd" stroke-linecap="round" stroke-linejoin="round">
        <g id="Home" transform="translate(-272.000000, -2512.000000)" stroke="#87DCF8" stroke-width="3">
            <g id="Group-11" transform="translate(100.000000, 2299.000000)">
                <g id="Page-1" transform="translate(174.000000, 215.000000)">
                    <path d="M146.349462,64.1037049 L102.094846,64.1037049 C100.296,64.1037049 98.8375385,62.6532131 98.8375385,60.8641967 L98.8375385,45.6948525 C98.8375385,43.9058361 100.296,42.4553443 102.094846,42.4553443 L146.349462,42.4553443 C148.148308,42.4553443 149.606769,43.9058361 149.606769,45.6948525 L149.606769,60.8641967 C149.606769,62.6532131 148.148308,64.1037049 146.349462,64.1037049 Z" id="Stroke-1"></path>
                    <path d="M143.668731,42.455 L104.774885,42.455 L107.7645,29.4464754 C108.230654,27.4164754 111.205269,25.852377 114.430269,25.852377 L134.013346,25.852377 C137.238346,25.852377 140.212962,27.4164754 140.679115,29.4464754 L143.668731,42.455 Z" id="Stroke-3"></path>
                    <path d="M109,64.1037049 L109,69.8414098" id="Stroke-5"></path>
                    <path d="M139,64.1037049 L139,69.8414098" id="Stroke-7"></path>
                    <path d="M108.949731,53 L110.437038,53" id="Stroke-9"></path>
                    <path d="M138.006577,53 L139.493885,53" id="Stroke-11"></path>
                    <path d="M123.559846,40.3101311 C123.559846,37.1498033 126.135231,34.5896393 129.312923,34.5896393 C132.489462,34.5896393 135.066,37.1498033 135.066,40.3101311" id="Stroke-13"></path>
                    <path d="M48.6477692,57.0122459 L44.1166154,57.0122459 L44.1166154,22.8602787 L53.5123846,22.8602787 C62.1777692,22.8602787 69.2000769,29.3714262 69.2000769,37.401918 L69.2000769,57.0122459 L64.6712308,57.0122459" id="Stroke-15"></path>
                    <path d="M65.4438462,60.767459 C65.4438462,65.2164754 61.8138462,68.8231967 57.3357692,68.8231967 C52.8576923,68.8231967 49.2276923,65.2164754 49.2276923,60.767459 C49.2276923,56.3184426 52.8576923,52.7117213 57.3357692,52.7117213 C61.8138462,52.7117213 65.4438462,56.3184426 65.4438462,60.767459 Z" id="Stroke-17"></path>
                    <path d="M23.0659615,60.767459 C23.0659615,65.2164754 19.4359615,68.8231967 14.9578846,68.8231967 C10.4798077,68.8231967 6.84980769,65.2164754 6.84980769,60.767459 C6.84980769,56.3184426 10.4798077,52.7117213 14.9578846,52.7117213 C19.4359615,52.7117213 23.0659615,56.3184426 23.0659615,60.767459 Z" id="Stroke-19"></path>
                    <path d="M44.1162692,40 L69.2008846,40" id="Stroke-21"></path>
                    <path d="M23.4191538,57.0110984 L44.1156923,57.0110984 L44.1156923,11.654541 L61.3103077,11.654541 C63.0837692,11.654541 64.5226154,10.2247049 64.5226154,8.46322951 L64.5226154,3.19027869 C64.5226154,1.42765574 63.0837692,0.000114754098 61.3103077,0.000114754098 L44.1156923,0.000114754098 L32.2806923,0.000114754098 L0.000692307693,0.000114754098 L0.000692307693,57.0110984 L6.85107692,57.0110984" id="Stroke-23"></path>
                </g>
            </g>
        </g>
    </g>
</svg>